<?xml version="1.0" encoding="UTF-8"?>
<svg width="48" height="48" version="1.1" viewBox="0 96 960 960" xmlns="http://www.w3.org/2000/svg">
 <g transform="matrix(23.95 0 0 23.95 -76.793 68.942)">
  <rect x="3.2064" y="1.1298" width="40.084" height="40.084" ry="20.042" fill="#fff" stroke-width="0" style="paint-order:normal"/>
  <path class="st1" transform="matrix(-.59915 -.36473 -.22453 .66453 42.428 11.195)" d="m31.364 10.531c1.1187 0.64351 2.7186 1.313 3.5505 3.402l0.3657 0.83129 0.32023 0.33758c1.2 1.2 1.7996 2.6982 1.6996 4.1982-0.1 1.4 0.09911 2.8006 0.49911 4.2006 1.5 5.6-0.80048 11.8-5.2005 16.2-4.5 4.4-10.597 6.7-16.197 5.2-1.4-0.3-2.8001-0.60067-4.2001-0.50067-1.5 0-3.1005-0.60005-4.2005-1.7001l-0.90135-0.90032c-1.2-1.2-1.7996-2.6982-1.6996-4.1982 0.1-1.4-0.099109-2.8006-0.49911-4.2006-1.5-5.6 0.80048-11.8 5.2005-16.2 4.5-4.4 10.597-6.7 16.197-5.2 1.4 0.3 2.801 0.59823 4.201 0.49823 0.94444 0 3.7666 1.9497 4.6405 2.4005l-5.438-5.0461c0.52966 0.17532 0.93138 0.34016 1.6621 0.6777z" fill="#f4ce14"/>
  <path id="XMLID_12947_" class="st58" transform="translate(1.327,-1.0128)" d="m20.724 6.5402c-1.8005 0.1271-3.5433 0.89188-4.4722 2.5223-0.61429 1.0781-1.6909 5.0051-0.20357 9.134 1.5537 4.552 4.2743 3.9592 5.2891 3.5254 0.25876-0.1319 0.44852-0.47834 0.5293-0.85352 0.32315-1.5007 0.87266-5.1232-0.47852-7.9414-1.3792-3.0394-3.8628-1.1685-4.6465-3.4414 1.4387-0.29759 2.6779 1.3756 4.8574 1.1367 2.0739-0.18805 2.9715-1.4729 3.2695-2.0488 0.07451-0.14399 0.05429-0.33058-0.09766-0.48633-0.509-0.47693-1.8502-1.4954-3.8711-1.5449-0.05999-0.00147-0.12175-0.00135-0.17578-0.00195zm-0.7793 1.2266c0.17915-5.822e-4 0.95332 0.13881 1.148 0.15585l-4.3912 1.3699c1.0408-1.0429 2.2472-1.5257 3.2432-1.5257h4.6e-5zm-3.459 1.8066 2.5527 8.4141c-3.128-2.712-2.5527-8.4141-2.5527-8.4141z" fill="#495e57"/>
 </g>
</svg>
