<?xml version="1.0" encoding="UTF-8"?>
<svg width="148" height="40" version="1.1" viewBox="0 0 148 40" xmlns="http://www.w3.org/2000/svg" xmlns:xlink="http://www.w3.org/1999/xlink">
 <path class="st1" transform="matrix(-.75949 -.46235 -.28462 .84237 37.784 7.3535)" d="m31.38 10.52c1.1032 0.60948 3.0028 1.9251 3.8743 4.1135l0.07969 0.19909 0.2654 0.26624c1.2 1.2 1.7998 2.6999 1.6998 4.1999-0.1 1.4 0.10119 2.8005 0.50119 4.2005 1.5 5.6-0.79929 11.801-5.1993 16.201-4.5 4.4-10.601 6.7005-16.201 5.2005-1.4-0.3-2.7994-0.60103-4.1994-0.50103-1.5 0-3.1001-0.60012-4.2001-1.7001l-0.89981-0.89963c-1.2-1.2-1.8019-2.701-1.7019-4.201 0.1-1.4-0.099055-2.7993-0.49905-4.1993-1.5-5.6 0.79929-11.801 5.1993-16.201 4.5-4.4 10.6-6.6986 16.2-5.1986 1.4 0.3 2.8001 0.59911 4.2001 0.49911 0.94609 0 1.9311 0.23932 2.8062 0.6916l-2.7656-3.0783s0.33844 0.13061 0.83988 0.40765z" fill="#f4ce14"/>
 <path class="st58" transform="matrix(1.2676 0 0 1.2676 -14.317 -8.1219)" d="m16.556 8.6283s-2.2727 4.6658-0.50654 9.5687c1.5537 4.552 4.2737 3.9592 5.2885 3.5254 0.25876-0.1319 0.44852-0.47987 0.5293-0.85505 0.32315-1.5007 0.87325-5.1215-0.47793-7.9397-1.5232-3.3568-4.3938-0.72411-4.8334-4.2993zm-0.07007 0.94488 2.5536 8.414c-3.128-2.712-2.5536-8.414-2.5536-8.414zm4.414-3.0314c-0.46636-0.011327-0.9682 0.028339-1.5051 0.13908-3.156 0.59393-3.1044 2.9623-3.1044 2.9623s1.1-2.124 4.2146-1.8514l-4.0451 1.7768c1.5645-0.60588 2.819 1.3072 5.1396 1.0529 2.0739-0.18805 2.9713-1.4727 3.2693-2.0486 0.07451-0.14399 0.05449-0.33073-0.09746-0.48648-0.509-0.47693-1.8506-1.4955-3.8715-1.5446zm-4.44 3.0268c-0.05592 0.021658-0.11276 0.046357-0.16954 0.074659z" fill="#495e57" stroke-width=".73496"/>
 <path transform="translate(-7.1705 -11.203)" d="m138.85 27.028c-0.84094 0-1.571 0.17188-2.1895 0.51367s-1.0953 0.82769-1.4316 1.457c-0.33637 0.62392-0.5039 1.3611-0.5039 2.2129 0 0.84636 0.16753 1.5812 0.5039 2.2051 0.33638 0.62392 0.81315 1.1074 1.4316 1.4492s1.3461 0.51367 2.1816 0.51367c0.84636 0 1.5788-0.17188 2.1973-0.51367s1.0953-0.8253 1.4316-1.4492c0.33637-0.62934 0.50586-1.3689 0.50586-2.2207 0-0.85178-0.16949-1.5866-0.50586-2.2051-0.33637-0.62392-0.81315-1.1074-1.4316-1.4492s-1.3485-0.51367-2.1894-0.51367zm-98.26 0.14648-0.056641 0.73242 0.79688 0.17383v0.57617 5.6211c-0.27836 0.075306-0.51459 0.15409-0.70703 0.23828l-0.05664 0.7168h3.459 2.7422c0.25499-0.89518 0.38281-1.8598 0.38281-2.8906h-0.76562l-1.0371 1.832h-2.0645v-0.42383-5.6172c0.15928-0.027887 0.31405-0.057965 0.45703-0.08789 0.23329-0.054255 0.42622-0.10547 0.57812-0.1543l0.05664-0.7168h-3.7852zm9.6523 0-0.058594 0.73242 0.79883 0.17383v0.57617 5.6191c-0.27943 0.075499-0.51598 0.1558-0.70898 0.24023l-0.056641 0.7168h3.459l0.05664-0.73242-0.79688-0.17383v-0.57617-5.6211c0.27837-0.075306 0.51459-0.15409 0.70703-0.23828l0.056641-0.7168h-3.457zm6.5898 0c-0.16819 0.85178-0.21463 1.735-0.13867 2.6465h0.79883l0.75195-1.5879h1.0625v6.0449c-0.10436 0.020542-0.20896 0.041697-0.31055 0.066406-0.19531 0.048825-0.37001 0.10677-0.52734 0.17188l-0.058593 0.7168h3.7207l0.05664-0.73242-0.92773-0.17383v-0.57617-5.5176h1.0605l0.75391 1.5879h0.79688c0.075955-0.91146 0.029514-1.7947-0.13867-2.6465h-6.9004zm9.9531 0c-0.16819 0.85178-0.21463 1.735-0.13867 2.6465h0.79688l0.75391-1.5879h1.0605v6.0449c-0.10436 0.020541-0.20702 0.041698-0.30859 0.066406-0.19531 0.048825-0.37196 0.10677-0.5293 0.17188l-0.05664 0.7168h3.7188l0.05664-0.73242-0.92773-0.17383v-0.57617-5.5176h1.0625l0.75195 1.5879h0.79883c0.075955-0.91146 0.029514-1.7947-0.13867-2.6465h-6.9004zm10.041 0-0.05664 0.73242 0.79688 0.17383v0.57617 5.6211c-0.27837 0.075306-0.51459 0.15409-0.70703 0.23828l-0.058593 0.7168h3.459 2.7422c0.25499-0.89518 0.38281-1.8598 0.38281-2.8906h-0.76367l-1.0371 1.832h-2.0645v-0.42383-5.6172c0.15928-0.027887 0.3121-0.057965 0.45508-0.08789 0.23329-0.054255 0.42622-0.10547 0.57812-0.1543l0.05664-0.7168h-3.7832zm9.6348 0-0.056641 0.73242 0.79688 0.17383v0.57617 5.6211c-0.27836 0.075306-0.51459 0.15409-0.70703 0.23828l-0.058594 0.7168h3.459 3.0117c0.13021-0.4503 0.22548-0.89887 0.28516-1.3438 0.065106-0.44488 0.090931-0.85178 0.080078-1.2207h-0.86914l-0.86523 1.5059h-2.3828v-0.42383-2.0996h2.5469l0.082031-1.1074h-2.6289v-2.3105h2.3066l0.64844 1.3594h0.88672c0.027153-0.3852 0.024741-0.78733-0.007812-1.2051-0.027127-0.41775-0.08507-0.82227-0.17188-1.2129h-2.8965-3.459zm14.811 0-0.05859 0.73242 0.79883 0.17383v0.57617 5.6191c-0.27943 0.075499-0.51599 0.1558-0.70899 0.24023l-0.05664 0.7168h3.459 2.7422c0.25499-0.89518 0.38282-1.8598 0.38282-2.8906h-0.76563l-1.0352 1.832h-2.0644v-0.42383-5.6172c0.1586-0.027787 0.31266-0.058082 0.45508-0.08789 0.23329-0.054255 0.42621-0.10547 0.57812-0.1543l0.05664-0.7168h-3.7832zm9.6328 0-0.05664 0.73242 0.79883 0.17383v0.57617 5.6191c-0.27942 0.075499-0.51598 0.1558-0.70898 0.24023l-0.05664 0.7168h3.459 3.0098c0.13022-0.4503 0.22549-0.89887 0.28515-1.3438 0.06514-0.44488 0.0929-0.85178 0.08203-1.2207h-0.87109l-0.86328 1.5059h-2.3828v-0.42383-2.0996h2.5469l0.08008-1.1074h-2.627v-2.3105h2.3047l0.64844 1.3594h0.88672c0.0272-0.3852 0.02472-0.78733-0.00781-1.2051-0.02713-0.41775-0.08312-0.82227-0.16992-1.2129h-2.8984-3.459zm10.164 0-0.05664 0.73242 0.84375 0.17578-0.40235 6.1934c-0.26173 0.072619-0.4821 0.15319-0.66015 0.24023l-0.0586 0.7168h2.832l0.0586-0.73242-0.87891-0.17188 0.28516-5.209 2.0976 5.7051c0.23872 0.016253 0.48958 0.022978 0.75 0.017578 0.26584-0.010853 0.51954-0.027128 0.76368-0.048828l2.1055-5.7109 0.2793 5.1895c-0.09513 0.022317-0.19128 0.046189-0.28516 0.072266-0.18989 0.054252-0.35742 0.1122-0.5039 0.17188l-0.05664 0.7168h3.4668l0.05665-0.73242-0.75196-0.17383-0.41015-6.2012c0.27808-0.067154 0.52434-0.14491 0.73828-0.23438l0.05859-0.7168h-1.8887-1.3594l-1.8457 5.4141-1.9297-5.4141h-1.1797-2.0684zm25.064 0-0.05664 0.73242 0.8125 0.28711v6.084c-0.27837 0.075306-0.51459 0.15409-0.70703 0.23828l-0.05664 0.7168h2.9219l0.05664-0.73242-0.91211-0.17383v-0.57617-3.6055l4.2148 5.1367c0.47742 0.027127 0.89105 0.013238 1.2383-0.041016v-7.1094c0.24258-0.067779 0.462-0.1479 0.6582-0.24023l0.05664-0.71484h-2.7578l-0.05664 0.73242 0.79687 0.17188v0.57617 3.668l-4.2148-5.1504h-1.9941zm-7.4785 0.89648c0.67817 0 1.199 0.29774 1.5625 0.89453 0.3635 0.59679 0.54493 1.4499 0.54493 2.5566 0 1.8772-0.57205 2.8145-1.7168 2.8145-0.67275 0-1.1936-0.29774-1.5625-0.89453-0.3635-0.59679-0.54492-1.4499-0.54492-2.5566 0-1.8772 0.57204-2.8145 1.7168-2.8145z" fill="#495e57" stroke-width="0" style="inline-size:122.442;paint-order:markers fill stroke;white-space:pre"/>
</svg>
