<?xml version="1.0" encoding="UTF-8"?>
<!-- Created with Inkscape (http://www.inkscape.org/) -->
<svg width="120" height="120" version="1.1" viewBox="0 0 120 120" xmlns="http://www.w3.org/2000/svg">
 <path d="m25.306 107.65c-1.35-1.35-1.3058-4.273-1.3058-5.1488 0-1.5379 3.5122-22.553 4.5718-27.356 0.43137-1.955-1.3637-4.2663-10.526-13.553-10.026-10.162-11.046-11.535-11.046-14.87 0-5.2361 2.2299-6.2793 18.39-8.6033 7.6396-1.0987 14.386-2.4938 14.993-3.1003 0.60648-0.60648 4.0309-6.8209 7.6097-13.81 4.8606-9.4918 7.2029-13.037 9.257-14.012 5.1176-2.4277 7.4944-0.1709 14.757 14.012 3.5789 6.9889 7.0032 13.203 7.6097 13.81 0.60648 0.60648 7.3533 2.0016 14.993 3.1003 16.16 2.324 18.39 3.3672 18.39 8.6033 0 3.3357-1.0216 4.7097-11.088 14.912-8.0413 8.1503-10.946 11.737-10.573 13.053 0.283 0.99798 1.4899 7.7914 2.682 15.096 2.0066 12.296 2.0482 13.464 0.56067 15.734-3.1561 4.8168-5.9035 4.4194-19.7-2.8493-6.9595-3.6667-13.669-6.6667-14.91-6.6667s-7.7699 2.925-14.509 6.5c-4.8361 1.8511-15.203 9.7188-20.157 5.1474z" fill="#ffcd00"/>
</svg>
