<svg width="21" height="13" viewBox="0 0 21 13" fill="none" xmlns="http://www.w3.org/2000/svg">
<path d="M17.4853 1.85714C17.4853 0.835714 16.5596 0 15.4282 0H12.3425V1.85714H15.4282V4.31786L11.8488 8.35714H8.22836V3.71429H4.11418C1.8411 3.71429 0 5.37643 0 7.42857V10.2143H2.05709C2.05709 11.7557 3.43534 13 5.14273 13C6.85011 13 8.22836 11.7557 8.22836 10.2143H12.8362L17.4853 4.96786V1.85714ZM5.14273 11.1429C4.57703 11.1429 4.11418 10.725 4.11418 10.2143H6.17127C6.17127 10.725 5.70843 11.1429 5.14273 11.1429Z" fill="black"/>
<path d="M8.22837 0.928558H3.08563V2.78568H8.22837V0.928558Z" fill="black"/>
<path d="M17.4853 7.42856C15.7779 7.42856 14.3996 8.67284 14.3996 10.2143C14.3996 11.7557 15.7779 13 17.4853 13C19.1927 13 20.5709 11.7557 20.5709 10.2143C20.5709 8.67284 19.1927 7.42856 17.4853 7.42856ZM17.4853 11.1428C16.9196 11.1428 16.4567 10.725 16.4567 10.2143C16.4567 9.70355 16.9196 9.28569 17.4853 9.28569C18.051 9.28569 18.5138 9.70355 18.5138 10.2143C18.5138 10.725 18.051 11.1428 17.4853 11.1428Z" fill="black"/>
</svg>
