<?xml version="1.0" encoding="UTF-8"?>
<!-- Created with Inkscape (http://www.inkscape.org/) -->
<svg width="310" height="512" version="1.1" viewBox="0 0 82.021 135.47" xml:space="preserve" xmlns="http://www.w3.org/2000/svg" xmlns:xlink="http://www.w3.org/1999/xlink"><defs><filter id="filter1124" x="0" y="0" width="1" height="1" color-interpolation-filters="sRGB"><feTurbulence baseFrequency="0.039999999999998842 0.14999999999999997" numOctaves="10" result="result1" seed="1000" type="fractalNoise"/><feDisplacementMap in="SourceGraphic" in2="result1" scale="23.39435"/></filter><filter id="filter10003-3" x="0" y="0" width="1" height="1" color-interpolation-filters="sRGB"><feTurbulence baseFrequency="1.6610253590210355 1.4973760808555825" numOctaves="10" result="result1" seed="1000" type="fractalNoise"/><feDisplacementMap in="SourceGraphic" in2="result1" scale="1.2362921"/></filter><filter id="filter10003-3-3" x="0" y="0" width="1" height="1" color-interpolation-filters="sRGB"><feTurbulence baseFrequency="1.6610253590210355 1.4973760808555825" numOctaves="10" result="result1" seed="1000" type="fractalNoise"/><feDisplacementMap in="SourceGraphic" in2="result1" scale="1.2362921"/></filter><filter id="filter10003-3-36" x="0" y="0" width="1" height="1" color-interpolation-filters="sRGB"><feTurbulence baseFrequency="1.6610253590210355 1.4973760808555825" numOctaves="10" result="result1" seed="1000" type="fractalNoise"/><feDisplacementMap in="SourceGraphic" in2="result1" scale="0.5"/></filter></defs><g transform="matrix(.99715 0 0 1 -23.899 .38335)" fill="#fff"><path transform="matrix(0 .082389 -.07958 0 39.665 23.744)" d="m193.4 71.545h813.48c7.7339 0 13.96 6.2262 13.96 13.96v12.195c0 7.7339-6.2262 13.96-13.96 13.96h-813.48c-7.7339 0-13.96-6.2262-13.96-13.96v-12.195c0-7.7339 6.2262-13.96 13.96-13.96zm-157.95-808.36v-13.968c0-6.5733 7.7706-11.865 17.423-11.865h817.03c9.6523 0 17.423 5.2918 17.423 11.865v13.968c0 6.5733-7.7706 11.865-17.423 11.865h-817.03c-9.6523 0-17.423-5.2919-17.423-11.865zm-1.605 842.96v-842.19c0-8.0069 6.014-14.453 13.484-14.453h11.779c7.4703 0 13.484 6.446 13.484 14.453v842.19c0 8.0069-6.014 14.453-13.484 14.453h-11.779c-7.4702 0-13.484-6.446-13.484-14.453zm959.96-856.71h11.09c5.2193 0 9.421 7.8215 9.421 17.537v822.38c0 9.7155-4.2017 17.537-9.421 17.537h-11.09c-5.2192 0-9.421-7.8215-9.421-17.537v-822.38c0-9.7155 4.2018-17.537 9.421-17.537z" filter="url(#filter1124)"/><path transform="translate(-26.309 31.212)" d="m123.02 97.156-7.3642-8.9738 1.5654-2.0064 7.3642 8.9958 0.11024 1.9293q-0.70556 0.11024-1.6757 0.05512zm-7.4745-0.23151v-10.594l1.7639 0.65044v9.9439zm1.6316-8.8525-1.2678-0.38585-1.4662-0.51814 0.0772-0.99219h2.701zm7.5186 9.0289-1.7639-0.93707v-9.8337h1.7639zm-10.186-0.01102 0.0772-0.97014q0.52917-0.23151 1.378-0.42995l-0.41892 1.1245v-1.7308h1.7639v1.7308l-0.38585-1.0253 1.6206 0.30868-0.0772 0.99219zm11.157-10.914-0.0772 0.97014q-0.56224 0.26458-1.3119 0.42995l0.41892-1.1245v1.7308h-1.7639v-1.7308l0.38585 1.0363-1.4662-0.3197 0.0772-0.99219zm-19.888 11.113q-1.6977 0-2.9545-0.69453-1.2568-0.69453-1.9403-1.9623-0.6835-1.2678-0.6835-2.9876 0-1.7308 0.6835-2.9986 0.68351-1.2788 1.9403-1.9734 1.2568-0.69453 2.9655-0.69453 1.7088 0 2.9656 0.69453 1.2568 0.69453 1.9403 1.9623 0.6835 1.2568 0.6835 2.9876t-0.6835 3.0096q-0.68351 1.2678-1.9403 1.9623-1.2568 0.69453-2.9766 0.69453zm0.27561-1.4111q2.3261 0 2.3261-3.8144 0-2.249-0.73863-3.4616-0.73863-1.2127-2.1167-1.2127-2.3261 0-2.3261 3.8144 0 2.249 0.73863 3.4616 0.74965 1.2127 2.1167 1.2127zm-17.716 0.66146-3.8144-10.363h2.712l3.3514 9.3927-0.19844 0.92604q-0.4961 0.0441-1.0363 0.06615-0.52917 0.01102-1.0142-0.02205zm-5.9531 0.55122 0.07717-0.97014q0.49609-0.24254 1.3119-0.42995l-0.47405 1.0032 0.65044-10.01 0.35278 0.80478-1.5434-0.3197 0.07717-0.99219h2.8002l-0.57326 10.495-0.34175-0.88194 1.5765 0.30868-0.07717 0.99219zm8.0037-0.59531-1.4883-0.19844 3.4506-10.12h1.8411zm2.0836 0.59531 0.07717-0.97014q0.29766-0.12127 0.68351-0.23151 0.39688-0.11024 0.80478-0.18741l-0.37483 0.91502-0.56224-10.44h3.649l-0.07717 0.97014q-0.60634 0.25356-1.4662 0.41892l0.41892-0.78273 0.65044 9.8006-0.41892-0.80478 1.3891 0.3197-0.07717 0.99219zm-21.266-0.16536v-10.594h2.6458v10.594zm1.4001 0.16536v-1.4332h6.0634l0.26458 1.4332zm6.328 0-2.1497-0.91502 1.4662-2.5576h1.1796q0.02205 0.74965-0.11024 1.6536-0.12127 0.90399-0.38585 1.819zm-6.5043-4.8507v-1.4993h4.983l-0.11024 1.4993zm-0.46302-4.6302v-1.4332h6.8461l-0.20946 1.4332zm5.887 1.8411-1.1024-2.3151 2.0615-0.95912q0.17639 0.79375 0.23151 1.6426 0.06615 0.84887 0.01103 1.6316zm-7.6839 7.6399 0.07717-0.97014q0.52917-0.23151 1.378-0.42995l-0.41892 1.1245v-1.7308h2.6458v1.7308l-0.38585-1.0363 1.4662 0.3197-0.07717 0.99219zm4.7184-10.914-0.07717 0.97014q-0.52917 0.23151-1.378 0.42995l0.41892-1.1245v1.7308h-2.6458v-1.7308l0.38585 1.0363-1.4662-0.3197 0.07717-0.99219zm-15.599 10.749v-10.594h2.6458v10.594zm1.3891 0.16536v-1.4332h5.5673l0.4079 1.4332zm5.9752 0-2.2159-0.91502 1.6977-2.9986h1.0363q0 2.0946-0.51814 3.9136zm-3.2411-10.914-0.07717 0.97014q-0.30868 0.09922-0.78273 0.20946-0.47404 0.09922-1.0363 0.18741l0.41892-1.0914v1.7308h-2.6458v-1.7308l0.38585 1.0363-1.4662-0.3197 0.07717-0.99219zm-5.1594 10.914 0.07717-0.97014q0.52917-0.23151 1.378-0.42995l-0.41892 1.1245v-1.7308h2.6458v1.7308l-0.38585-1.0363 1.4662 0.3197-0.07717 0.99219zm64.768 0.06615-7.3642-8.9738 1.5654-2.0064 7.3642 8.9958 0.11024 1.9293q-0.70556 0.11024-1.6757 0.05512zm-7.4745-0.23151v-10.594l1.7639 0.65044v9.9439zm1.6316-8.8525-1.2678-0.38585-1.4662-0.51814 0.0772-0.99219h2.701zm7.5186 9.0289-1.7639-0.93707v-9.8337h1.7639zm-10.186-0.01102 0.0772-0.97014q0.52917-0.23151 1.378-0.42995l-0.41892 1.1245v-1.7308h1.7639v1.7308l-0.38585-1.0253 1.6206 0.30868-0.0772 0.99219zm11.157-10.914-0.0772 0.97014q-0.56224 0.26458-1.3119 0.42995l0.41892-1.1245v1.7308h-1.7639v-1.7308l0.38585 1.0363-1.4662-0.3197 0.0772-0.99219zm-19.888 11.113q-1.6977 0-2.9545-0.69453-1.2568-0.69453-1.9403-1.9623-0.6835-1.2678-0.6835-2.9876 0-1.7308 0.6835-2.9986 0.68351-1.2788 1.9403-1.9734 1.2568-0.69453 2.9655-0.69453 1.7088 0 2.9656 0.69453 1.2568 0.69453 1.9403 1.9623 0.6835 1.2568 0.6835 2.9876t-0.6835 3.0096q-0.68351 1.2678-1.9403 1.9623-1.2568 0.69453-2.9766 0.69453zm0.27561-1.4111q2.3261 0 2.3261-3.8144 0-2.249-0.73863-3.4616-0.73863-1.2127-2.1167-1.2127-2.3261 0-2.3261 3.8144 0 2.249 0.73863 3.4616 0.74965 1.2127 2.1167 1.2127zm-17.716 0.66146-3.8144-10.363h2.712l3.3514 9.3927-0.19844 0.92604q-0.4961 0.0441-1.0363 0.06615-0.52917 0.01102-1.0142-0.02205zm-5.9531 0.55122 0.07717-0.97014q0.49609-0.24254 1.3119-0.42995l-0.47405 1.0032 0.65044-10.01 0.35278 0.80478-1.5434-0.3197 0.07717-0.99219h2.8002l-0.57326 10.495-0.34175-0.88194 1.5765 0.30868-0.07717 0.99219zm8.0037-0.59531-1.4883-0.19844 3.4506-10.12h1.8411zm2.0836 0.59531 0.07717-0.97014q0.29766-0.12127 0.68351-0.23151 0.39688-0.11024 0.80478-0.18741l-0.37483 0.91502-0.56224-10.44h3.649l-0.07717 0.97014q-0.60634 0.25356-1.4662 0.41892l0.41892-0.78273 0.65044 9.8006-0.41892-0.80478 1.3891 0.3197-0.07717 0.99219zm-21.266-0.16536v-10.594h2.6458v10.594zm1.4001 0.16536v-1.4332h6.0634l0.26458 1.4332zm6.328 0-2.1497-0.91502 1.4662-2.5576h1.1796q0.02205 0.74965-0.11024 1.6536-0.12127 0.90399-0.38585 1.819zm-6.5043-4.8507v-1.4993h4.983l-0.11024 1.4993zm-0.46302-4.6302v-1.4332h6.8461l-0.20946 1.4332zm5.887 1.8411-1.1024-2.3151 2.0615-0.95912q0.17639 0.79375 0.23151 1.6426 0.06615 0.84887 0.01103 1.6316zm-7.6839 7.6399 0.07717-0.97014q0.52917-0.23151 1.378-0.42995l-0.41892 1.1245v-1.7308h2.6458v1.7308l-0.38585-1.0363 1.4662 0.3197-0.07717 0.99219zm4.7184-10.914-0.07717 0.97014q-0.52917 0.23151-1.378 0.42995l0.41892-1.1245v1.7308h-2.6458v-1.7308l0.38585 1.0363-1.4662-0.3197 0.07717-0.99219zm-15.599 10.749v-10.594h2.6458v10.594zm1.3891 0.16536v-1.4332h5.5673l0.4079 1.4332zm5.9752 0-2.2159-0.91502 1.6977-2.9986h1.0363q0 2.0946-0.51814 3.9136zm-3.2411-10.914-0.07717 0.97014q-0.30868 0.09922-0.78273 0.20946-0.47404 0.09922-1.0363 0.18741l0.41892-1.0914v1.7308h-2.6458v-1.7308l0.38585 1.0363-1.4662-0.3197 0.07717-0.99219zm-5.1594 10.914 0.07717-0.97014q0.52917-0.23151 1.378-0.42995l-0.41892 1.1245v-1.7308h2.6458v1.7308l-0.38585-1.0363 1.4662 0.3197-0.07717 0.99219z" filter="url(#filter10003-3-3)" stroke-width=".26458" style="inline-size:87.7128;white-space:pre"/><path transform="translate(-25.795 -79.862)" d="m115.76 96.925v-10.594h2.6458v10.594zm1.4001 0.16536v-1.4332h6.0634l0.26458 1.4332zm6.328 0-2.1497-0.91502 1.4662-2.5576h1.1796q0.022 0.74965-0.11024 1.6536-0.12127 0.90399-0.38586 1.819zm-6.5043-4.8507v-1.4993h4.983l-0.11024 1.4993zm-0.46302-4.6302v-1.4332h6.8461l-0.20946 1.4332zm5.887 1.8411-1.1024-2.3151 2.0616-0.95912q0.17639 0.79375 0.23151 1.6426 0.0661 0.84887 0.011 1.6316zm-7.684 7.6399 0.0772-0.97014q0.52917-0.23151 1.378-0.42995l-0.41892 1.1245v-1.7308h2.6458v1.7308l-0.38585-1.0363 1.4662 0.3197-0.0772 0.99219zm4.7184-10.914-0.0772 0.97014q-0.52917 0.23151-1.378 0.42995l0.41892-1.1245v1.7308h-2.6458v-1.7308l0.38585 1.0363-1.4662-0.3197 0.0772-0.99219zm-15.599 10.749v-10.594h2.6458v10.594zm1.3891 0.16536v-1.4332h5.5673l0.4079 1.4332zm5.9752 0-2.2159-0.91502 1.6977-2.9986h1.0363q0 2.0946-0.51815 3.9136zm-3.2412-10.914-0.0772 0.97014q-0.30868 0.09922-0.78272 0.20946-0.47405 0.09922-1.0363 0.18741l0.41893-1.0914v1.7308h-2.6458v-1.7308l0.38585 1.0363-1.4662-0.3197 0.0772-0.99219zm-5.1594 10.914 0.0772-0.97014q0.52917-0.23151 1.378-0.42995l-0.41892 1.1245v-1.7308h2.6458v1.7308l-0.38586-1.0363 1.4662 0.3197-0.0772 0.99219zm-9.084-0.16536v-10.594h2.6458v10.594zm-3.5388-7.1658q-0.15434-1.8521 0.18741-3.5829l2.1387 0.95912-1.2457 2.6238zm0.37483-2.1497-0.18741-1.4332h9.3486l-0.38585 1.4332zm8.2682 2.1497-1.2457-2.6238 2.1387-0.95912q0.34175 1.7308 0.18741 3.5829zm-6.3169 7.3312 0.07717-0.97014q0.3197-0.13229 0.71658-0.23151 0.4079-0.09922 0.83785-0.16536l-0.41892 1.0914v-1.7308h2.6458v1.7308l-0.38585-1.0253 1.6426 0.30868-0.07717 0.99219zm-11.135-0.16536v-10.594h2.6458v10.594zm-3.5388-7.1658q-0.15434-1.8521 0.18741-3.5829l2.1387 0.95912-1.2457 2.6238zm0.37483-2.1497-0.18741-1.4332h9.3486l-0.38585 1.4332zm8.2682 2.1497-1.2457-2.6238 2.1387-0.95912q0.34175 1.7308 0.18741 3.5829zm-6.3169 7.3312 0.07717-0.97014q0.3197-0.13229 0.71658-0.23151 0.4079-0.09922 0.83785-0.16536l-0.41892 1.0914v-1.7308h2.6458v1.7308l-0.38585-1.0253 1.6426 0.30868-0.07717 0.99219zm-8.9297-0.16536v-10.594h2.6458v10.594zm-1.0363 0.16536 0.07717-0.97014q0.52917-0.23151 1.378-0.42995l-0.41892 1.1245v-1.7308h2.6458v1.7308l-0.38585-1.0363 1.4662 0.3197-0.07717 0.99219zm4.7184-10.914-0.07717 0.97014q-0.52917 0.23151-1.378 0.42995l0.41892-1.1245v1.7308h-2.6458v-1.7308l0.38585 1.0363-1.4662-0.3197 0.07717-0.99219zm-15.621 10.749v-10.594h2.6458v10.594zm1.3891 0.16536v-1.4332h5.5673l0.4079 1.4332zm5.9752 0-2.2159-0.91502 1.6977-2.9986h1.0363q0 2.0946-0.51814 3.9136zm-3.2411-10.914-0.07717 0.97014q-0.30868 0.09922-0.78273 0.20946-0.47404 0.09922-1.0363 0.18741l0.41892-1.0914v1.7308h-2.6458v-1.7308l0.38585 1.0363-1.4662-0.3197 0.07717-0.99219zm-5.1594 10.914 0.07717-0.97014q0.52917-0.23151 1.378-0.42995l-0.41892 1.1245v-1.7308h2.6458v1.7308l-0.38585-1.0363 1.4662 0.3197-0.07717 0.99219zm57.503-0.16536v-10.594h2.6458v10.594zm1.4001 0.16536v-1.4332h6.0634l0.26458 1.4332zm6.328 0-2.1497-0.91502 1.4662-2.5576h1.1796q0.022 0.74965-0.11024 1.6536-0.12127 0.90399-0.38586 1.819zm-6.5043-4.8507v-1.4993h4.983l-0.11024 1.4993zm-0.46302-4.6302v-1.4332h6.8461l-0.20946 1.4332zm5.887 1.8411-1.1024-2.3151 2.0616-0.95912q0.17639 0.79375 0.23151 1.6426 0.0661 0.84887 0.011 1.6316zm-7.684 7.6399 0.0772-0.97014q0.52917-0.23151 1.378-0.42995l-0.41892 1.1245v-1.7308h2.6458v1.7308l-0.38585-1.0363 1.4662 0.3197-0.0772 0.99219zm4.7184-10.914-0.0772 0.97014q-0.52917 0.23151-1.378 0.42995l0.41892-1.1245v1.7308h-2.6458v-1.7308l0.38585 1.0363-1.4662-0.3197 0.0772-0.99219zm-15.599 10.749v-10.594h2.6458v10.594zm1.3891 0.16536v-1.4332h5.5673l0.4079 1.4332zm5.9752 0-2.2159-0.91502 1.6977-2.9986h1.0363q0 2.0946-0.51815 3.9136zm-3.2412-10.914-0.0772 0.97014q-0.30868 0.09922-0.78272 0.20946-0.47405 0.09922-1.0363 0.18741l0.41893-1.0914v1.7308h-2.6458v-1.7308l0.38585 1.0363-1.4662-0.3197 0.0772-0.99219zm-5.1594 10.914 0.0772-0.97014q0.52917-0.23151 1.378-0.42995l-0.41892 1.1245v-1.7308h2.6458v1.7308l-0.38586-1.0363 1.4662 0.3197-0.0772 0.99219zm-9.084-0.16536v-10.594h2.6458v10.594zm-3.5388-7.1658q-0.15434-1.8521 0.18741-3.5829l2.1387 0.95912-1.2457 2.6238zm0.37483-2.1497-0.18741-1.4332h9.3486l-0.38585 1.4332zm8.2682 2.1497-1.2457-2.6238 2.1387-0.95912q0.34175 1.7308 0.18741 3.5829zm-6.3169 7.3312 0.07717-0.97014q0.3197-0.13229 0.71658-0.23151 0.4079-0.09922 0.83785-0.16536l-0.41892 1.0914v-1.7308h2.6458v1.7308l-0.38585-1.0253 1.6426 0.30868-0.07717 0.99219zm-11.135-0.16536v-10.594h2.6458v10.594zm-3.5388-7.1658q-0.15434-1.8521 0.18741-3.5829l2.1387 0.95912-1.2457 2.6238zm0.37483-2.1497-0.18741-1.4332h9.3486l-0.38585 1.4332zm8.2682 2.1497-1.2457-2.6238 2.1387-0.95912q0.34175 1.7308 0.18741 3.5829zm-6.3169 7.3312 0.07717-0.97014q0.3197-0.13229 0.71658-0.23151 0.4079-0.09922 0.83785-0.16536l-0.41892 1.0914v-1.7308h2.6458v1.7308l-0.38585-1.0253 1.6426 0.30868-0.07717 0.99219zm-8.9297-0.16536v-10.594h2.6458v10.594zm-1.0363 0.16536 0.07717-0.97014q0.52917-0.23151 1.378-0.42995l-0.41892 1.1245v-1.7308h2.6458v1.7308l-0.38585-1.0363 1.4662 0.3197-0.07717 0.99219zm4.7184-10.914-0.07717 0.97014q-0.52917 0.23151-1.378 0.42995l0.41892-1.1245v1.7308h-2.6458v-1.7308l0.38585 1.0363-1.4662-0.3197 0.07717-0.99219zm-15.621 10.749v-10.594h2.6458v10.594zm1.3891 0.16536v-1.4332h5.5673l0.4079 1.4332zm5.9752 0-2.2159-0.91502 1.6977-2.9986h1.0363q0 2.0946-0.51814 3.9136zm-3.2411-10.914-0.07717 0.97014q-0.30868 0.09922-0.78273 0.20946-0.47404 0.09922-1.0363 0.18741l0.41892-1.0914v1.7308h-2.6458v-1.7308l0.38585 1.0363-1.4662-0.3197 0.07717-0.99219zm-5.1594 10.914 0.07717-0.97014q0.52917-0.23151 1.378-0.42995l-0.41892 1.1245v-1.7308h2.6458v1.7308l-0.38585-1.0363 1.4662 0.3197-0.07717 0.99219z" filter="url(#filter10003-3)" stroke-width=".265" style="inline-size:87.7128;white-space:pre"/><path class="st1" d="m63.522 39.249c-0.74255 0.0027-1.5327 0.08138-2.3717 0.25386-2.8973 0.69048-4.5862 2.1953-5.6049 4.6847 0.18804-0.21509 0.44903-0.46471 0.77662-0.72399 1.3236-1.0476 3.7344-2.2539 6.8128-1.9853l-4.2133 1.8467c1.1389 0.02019 2.3155 0.37473 3.3483 1.0016 1.3077 0.92178 2.7423 1.4598 4.1923 1.9615 2.7371-0.69277 4.0034-2.5304 4.4644-3.4187 0.13305-0.25642 0.09698-0.58868-0.17438-0.86599-0.90896-0.84925-3.304-2.6636-6.9128-2.751-0.10411-0.0025-0.21132-0.0039-0.31739-0.0035zm2.9402 7.0392c-0.42272 0.107-0.87874 0.18474-1.3742 0.22956-3.911 0.42729-6.1272-2.5805-8.7125-2.0137 1.4057 4.046 5.8731 0.70888 8.3359 6.121 2.4129 5.0183 1.4316 11.465 0.85451 14.138-0.14429 0.66809-0.48315 1.2884-0.9452 1.5233-1.8123 0.77247-6.6704 1.828-9.445-6.2776-2.4374-6.7473-0.5948-13.22 0.36968-15.821-1.6432 0.67441-2.8058 2.011-3.2785 3.77-0.45435 1.7216-1.2289 3.2461-2.2182 4.643-3.8502 5.6523-3.8748 14.483-0.93124 22.547 3.0505 8.1291 8.6522 14.814 15.245 16.676 1.6182 0.55429 3.2368 1.1078 4.6946 2.1354 1.6049 0.97421 3.5579 1.3037 5.1759 0.71644l1.3254-0.47992c1.7651-0.64057 3.0073-2.0275 3.5018-3.8674 0.45435-1.7216 1.229-3.2496 2.2183-4.6464 3.8502-5.6523 3.8748-14.479 0.93123-22.544-3.0505-8.1291-8.6557-14.814-15.249-16.676-0.16664-0.0572-0.33233-0.11629-0.49876-0.1739zm-10.505-1.6381s-1.0273 10.154 4.5586 14.983z" filter="url(#filter10003-3-36)" stroke-width="1.2355"/></g></svg>
